<?xml version="1.0" standalone="no"?>
<!DOCTYPE svg PUBLIC "-//W3C//DTD SVG 20010904//EN"
 "http://www.w3.org/TR/2001/REC-SVG-20010904/DTD/svg10.dtd">
<svg version="1.0" xmlns="http://www.w3.org/2000/svg"
 width="1920.000000pt" height="1080.000000pt" viewBox="0 0 1920.000000 1080.000000"
 preserveAspectRatio="xMidYMid meet">

<g transform="translate(0.000000,1080.000000) scale(0.100000,-0.100000)"
fill="#000000" stroke="none">
<path d="M16140 10670 c-435 -53 -795 -372 -1094 -968 -401 -800 -675 -2134
-746 -3627 -23 -478 4 -1096 61 -1430 l18 -110 -94 -190 c-187 -378 -340 -563
-488 -590 -94 -18 -142 84 -154 325 -10 202 18 450 101 903 62 334 86 516 93
692 11 289 -47 456 -182 528 -51 28 -183 30 -265 5 l-55 -17 -23 -158 c-70
-485 -188 -928 -325 -1213 -95 -197 -301 -519 -458 -715 -108 -134 -265 -290
-345 -341 -192 -123 -342 -101 -389 58 -20 69 -20 267 1 389 90 522 437 1236
810 1662 342 392 675 561 963 488 97 -24 182 -69 266 -141 70 -59 70 -59 106
53 19 57 24 94 24 177 0 97 -2 110 -32 173 -59 123 -178 210 -358 259 -115 31
-364 32 -481 0 -485 -130 -991 -569 -1411 -1222 -146 -228 -265 -462 -348
-685 -97 -260 -159 -649 -159 -990 1 -154 5 -209 22 -288 48 -227 149 -346
335 -394 79 -20 239 -13 350 16 398 103 785 505 1145 1189 l59 113 6 -248 c8
-373 50 -611 143 -802 78 -160 185 -249 329 -274 262 -45 523 199 801 751 45
90 84 159 87 155 2 -4 12 -33 22 -63 115 -361 311 -632 541 -748 102 -51 189
-73 313 -79 l114 -6 -6 99 c-15 227 -19 653 -8 814 16 223 46 490 77 690 132
853 358 1337 652 1400 82 17 124 3 156 -53 44 -77 51 -134 50 -392 -1 -278
-13 -415 -85 -924 -82 -581 -102 -835 -80 -1026 48 -419 286 -655 662 -655
175 0 324 70 497 234 282 267 557 775 667 1236 23 98 27 130 23 220 -4 104
-26 179 -53 187 -23 7 -124 -203 -301 -622 -188 -449 -341 -678 -501 -753 -49
-23 -71 -27 -145 -27 -81 0 -88 2 -125 31 -77 63 -107 134 -123 294 -17 178
13 436 95 806 73 329 119 623 146 929 16 183 16 567 0 670 -49 311 -182 442
-446 438 -419 -5 -808 -330 -1106 -924 -176 -353 -257 -649 -308 -1134 -32
-301 -39 -353 -51 -375 -29 -54 -71 3 -94 129 -23 118 -39 551 -34 908 l4 291
115 119 c582 599 1153 1592 1480 2573 310 932 341 1647 84 1988 -111 147 -317
220 -545 192z m119 -471 c67 -37 118 -141 148 -300 24 -132 24 -530 -1 -714
-118 -881 -550 -1807 -1206 -2589 -69 -82 -133 -158 -142 -170 -9 -11 -20 -17
-24 -13 -18 18 35 459 107 897 192 1164 482 2215 726 2624 140 236 278 329
392 265z"/>
<path d="M5250 8611 c-143 -33 -183 -60 -256 -172 -147 -225 -286 -726 -438
-1579 -51 -288 -100 -587 -181 -1125 -124 -823 -177 -1130 -236 -1375 -36
-152 -56 -200 -80 -200 -24 0 -46 44 -130 255 -37 94 -95 238 -129 320 -252
610 -528 1669 -815 3125 -42 212 -80 409 -86 438 -9 47 -16 57 -57 87 -63 46
-250 138 -344 169 -119 40 -213 52 -297 37 -137 -25 -226 -107 -238 -222 -6
-68 2 -102 280 -1139 582 -2168 1049 -3513 1317 -3788 99 -103 268 -172 418
-172 162 0 284 50 382 157 97 106 147 220 234 534 97 350 148 595 291 1409
262 1491 394 2036 575 2390 115 224 223 286 542 310 193 14 245 26 280 60 41
42 40 110 -4 176 -85 127 -395 259 -728 309 -122 19 -206 18 -300 -4z"/>
<path d="M10904 7976 c-161 -37 -281 -139 -363 -308 -86 -179 -113 -339 -100
-598 28 -576 243 -943 587 -1002 55 -9 72 -16 72 -29 0 -28 -106 -385 -165
-559 -395 -1148 -884 -1822 -1305 -1798 -59 3 -74 8 -106 34 -53 43 -71 70
-98 149 -37 106 -50 250 -42 475 11 349 51 586 211 1250 139 578 186 834 206
1136 13 205 4 287 -42 382 -73 149 -281 224 -495 178 -85 -19 -232 -85 -302
-136 l-43 -31 40 -30 c55 -39 104 -109 132 -188 19 -52 23 -86 23 -161 -1 -86
-10 -130 -92 -455 -178 -705 -263 -1149 -307 -1610 -23 -235 -30 -549 -16
-678 42 -379 192 -599 462 -673 86 -24 313 -24 418 0 300 67 526 200 777 457
351 361 637 889 874 1616 229 703 362 1561 296 1923 -44 244 -163 491 -281
583 -94 74 -219 101 -341 73z m247 -386 c20 -13 50 -45 67 -70 67 -99 86 -217
79 -470 -5 -195 -30 -373 -83 -593 l-26 -109 -51 7 c-216 28 -340 286 -363
751 -14 278 49 450 182 500 58 21 151 14 195 -16z"/>
<path d="M8145 7396 c-27 -7 -66 -20 -86 -28 l-36 -16 -7 -93 c-46 -612 -245
-1460 -487 -2069 -235 -595 -522 -1013 -834 -1215 -101 -65 -136 -79 -185 -72
-57 7 -95 40 -130 110 -43 88 -60 180 -60 334 0 275 64 522 275 1058 149 379
207 557 246 756 41 214 43 431 4 561 -76 255 -294 336 -603 221 -37 -14 -42
-19 -37 -37 29 -90 35 -132 35 -236 0 -247 -43 -414 -277 -1085 -220 -631
-290 -881 -339 -1220 -25 -173 -23 -456 4 -589 57 -272 202 -412 451 -432 145
-12 351 43 510 135 494 289 998 1061 1237 1896 l35 120 -6 -140 c-24 -640
-249 -1580 -586 -2455 l-72 -185 -216 -2 c-684 -4 -1295 -211 -1733 -587 -370
-317 -589 -831 -565 -1326 11 -210 62 -335 192 -466 131 -133 257 -182 487
-191 233 -9 456 44 695 166 532 272 1006 788 1393 1516 29 55 54 101 56 103 1
2 91 -30 201 -71 725 -273 1264 -372 1630 -299 179 36 359 103 488 182 357
219 545 537 545 922 0 105 -14 258 -31 346 l-11 53 -100 -96 c-228 -216 -545
-378 -868 -441 -173 -34 -655 -22 -1030 27 -233 30 -520 90 -520 109 0 4 38
113 84 242 448 1247 748 2487 817 3370 17 220 7 637 -19 753 -39 177 -117 296
-231 352 -49 24 -69 28 -161 30 -62 1 -126 -3 -155 -11z m-1308 -5267 c133
-14 127 6 46 -175 -227 -508 -634 -1047 -988 -1309 -359 -266 -719 -297 -926
-78 -90 95 -127 219 -116 388 29 423 329 785 828 998 366 156 759 216 1156
176z"/>
</g>
</svg>
